<?xml version="1.0" encoding="UTF-8" standalone="no"?> <svg xmlns="http://www.w3.org/2000/svg" xmlns:xlink="http://www.w3.org/1999/xlink" xmlns:serif="http://www.serif.com/" width="100%" height="100%" viewBox="0 0 1026 709" version="1.1" xml:space="preserve" style="fill-rule:evenodd;clip-rule:evenodd;stroke-linejoin:round;stroke-miterlimit:2;"> <g transform="matrix(-3.37944e-16,1.83968,-1.83968,-3.37944e-16,1675.23,-2381.69)"> <g> <g id="Logo-2" serif:id="Logo 2"> <g transform="matrix(4.16667,0,0,4.16667,-1117.33,-1429.54)"> <path d="M625.057,551.998L609.204,536.147L645.757,499.594L661.609,515.448L625.057,551.998ZM604.404,499.546L620.286,515.427L604.386,531.327L588.504,515.448L604.404,499.546ZM625.057,437.456L640.938,453.338L604.386,489.89L588.504,474.009L625.057,437.456ZM625.057,510.562L609.223,494.728L625.057,478.894L640.891,494.728L625.057,510.562ZM645.709,489.909L629.856,474.057L645.757,458.157L661.609,474.009L645.709,489.909ZM671.246,474.009L625.057,427.82L578.867,474.009L599.586,494.728L578.867,515.448L625.057,561.636L671.246,515.448L650.527,494.728L671.246,474.009Z" style="fill:rgb(1,1,1);fill-rule:nonzero;"></path> </g> <g transform="matrix(4.16667,0,0,4.16667,-1117.33,-1429.54)"> <path d="M625.057,437.456L640.938,453.338L604.386,489.89L588.504,474.009L625.057,437.456Z" style="fill:rgb(94,75,57);fill-rule:nonzero;"></path> </g> <g transform="matrix(4.16667,0,0,4.16667,-1117.33,-1429.54)"> <path d="M625.057,551.998L609.204,536.147L645.757,499.594L661.609,515.448L625.057,551.998Z" style="fill:rgb(94,75,57);fill-rule:nonzero;"></path> </g> </g> </g> <g transform="matrix(-0.465654,-0.465654,0.292175,-0.292175,1514.95,943.336)"> <rect x="329.326" y="130.409" width="75.026" height="119.573" style="fill:rgb(1,1,1);"></rect> </g> <g transform="matrix(-0.465654,-0.465654,0.292175,-0.292175,1602.32,858.147)"> <rect x="329.326" y="130.409" width="75.026" height="119.573" style="fill:rgb(1,1,1);"></rect> </g> <g transform="matrix(-0.465654,-0.465654,0.292175,-0.292175,1687.71,772.334)"> <rect x="329.326" y="130.409" width="75.026" height="119.573" style="fill:rgb(1,1,1);"></rect> </g> </g> </svg> 